<?xml version="1.0" standalone="no"?>
<!DOCTYPE svg PUBLIC "-//W3C//DTD SVG 20010904//EN"
 "http://www.w3.org/TR/2001/REC-SVG-20010904/DTD/svg10.dtd">
<svg version="1.0" xmlns="http://www.w3.org/2000/svg"
 width="10.000000pt" height="12.000000pt" viewBox="0 0 4157.000000 6299.000000"
 preserveAspectRatio="xMidYMid meet">
<metadata>
Created by potrace 1.16, written by Peter Selinger 2001-2019
</metadata>
<g transform="translate(0.000000,6299.000000) scale(0.100000,-0.100000)"
fill="#000000" stroke="none">
<path d="M9890 52831 l0 -10150 2885 -1 2885 0 0 7570 0 7570 7875 0 c4331 0
7875 -2 7875 -4 0 -3 -2583 -4076 -3955 -6236 -117 -184 -472 -744 -790 -1245
-714 -1124 -2718 -4284 -2997 -4725 l-205 -325 4355 -3 c3951 -2 4354 -3 4348
-18 -3 -8 -169 -273 -369 -587 -200 -315 -793 -1247 -1317 -2072 -524 -825
-1089 -1714 -1255 -1975 -166 -261 -594 -934 -950 -1495 -356 -561 -831 -1308
-1055 -1660 -224 -352 -650 -1022 -947 -1490 -820 -1291 -5100 -8026 -5598
-8810 -242 -379 -519 -816 -617 -970 l-178 -280 0 -4985 1 -4985 32 52 c82
134 1092 1748 4027 6433 425 679 1169 1867 1653 2640 484 773 1069 1707 1300
2075 231 369 682 1089 1002 1600 630 1006 1103 1760 1707 2725 212 338 643
1027 958 1530 315 503 689 1100 830 1325 267 426 791 1264 1597 2550 258 413
877 1400 1375 2195 498 795 1302 2080 1788 2855 486 776 1033 1649 1215 1940
420 670 1596 2547 1995 3185 167 267 655 1045 1084 1730 647 1033 1089 1755
1113 1818 4 9 -818 12 -4091 12 -2253 0 -4096 3 -4096 6 0 3 136 223 302 488
755 1205 1283 2047 1880 3001 1739 2777 3580 5717 3833 6120 974 1555 1681
2684 1698 2713 l19 32 -15606 0 -15606 0 0 -10149z"/>
<path d="M2908 39253 c-397 -635 -2646 -4225 -2783 -4443 l-122 -195 4943 -3
4944 -2 2 -17296 3 -17296 741 1184 c1281 2045 3225 5148 3782 6038 295 470
696 1109 891 1420 l355 565 -3 12692 -2 12693 3366 2 3366 3 151 240 c83 132
347 553 586 935 1038 1658 2396 3827 2410 3848 l14 22 -11195 0 -11194 0 -255
-407z"/>
</g>
</svg>
